<?xml version="1.0" encoding="utf-8"?>
<!-- Generator: Adobe Illustrator 26.0.3, SVG Export Plug-In . SVG Version: 6.00 Build 0)  -->
<svg version="1.1" xmlns="http://www.w3.org/2000/svg" xmlns:xlink="http://www.w3.org/1999/xlink" x="0px" y="0px"
	 viewBox="0 0 661 348" style="enable-background:new 0 0 661 348;" xml:space="preserve">
<style type="text/css">
	.st0{fill:#0E142D;}
	.st1{fill:#FFFFFF;}
</style>
<g id="Layer_2">
</g>
<g id="Layer_1">
	<g>
		<path class="st0" d="M249.83,95.48c4.91,2.36,9.51,4.25,13.78,6.71c3.7,2.13,5.49,5.66,5.49,10.07
			c-0.02,40.16-0.02,80.32-0.01,120.49c0,6.45-4.06,9.66-9.35,12.1c-11.06,5.11-22.05,10.37-33.08,15.55
			c-11.76,5.52-23.53,11-35.29,16.51c-7.19,3.37-14.39,6.71-21.53,10.18c-5.46,2.65-10.67,1.97-15.95-0.55
			c-13.11-6.24-26.27-12.36-39.39-18.56c-10.72-5.07-21.42-10.2-32.14-15.28c-6.3-2.99-12.61-5.95-18.94-8.88
			c-5.05-2.34-7.51-6.25-7.51-11.82c0.02-35,0.01-70,0.01-105c0-4.11,0.22-8.24-0.05-12.34c-0.49-7.43,3.12-11.76,9.64-14.68
			C76.63,95,87.57,89.63,98.6,84.46c11.76-5.52,23.53-10.99,35.29-16.5c6.25-2.93,12.42-6.01,18.74-8.77
			c8.81-3.85,16.24-1.23,24.74,2.2c2.75,1.11,5.35,2.59,8.09,3.73c1.64,0.69,2.3,1.65,2.3,3.46c-0.04,32.9-0.13,118.86-0.01,122.32
			c0.19,5.44-2.25,9.29-7.06,11.52c-10.04,4.64-20.16,9.09-30.22,13.67c-10.87,4.95-21.69,9.98-32.57,14.89
			c-1.87,0.84-2.59,1.91-2.46,4c0.2,3.21,0.16,6.46-0.02,9.67c-0.23,4.08,3.11,5.82,6.44,4.33c4.53-2.02,9.03-4.11,13.54-6.18
			c7.83-3.6,15.67-7.21,23.5-10.81c9.16-4.22,18.3-8.44,27.47-12.64c4.57-2.1,9.12-4.26,13.76-6.2c5.75-2.41,8.59-6.36,8.6-12.58
			c0.04-24.39,0.01-48.77,0.01-73.16c0-15.83-0.48-31.75,0.07-47.57c0.03-0.84,0.18-1.74,0.77-2.33c2-2.03,15.22,6.23,17.7,7.5
			c0.75,0.38,1.45,1.71,1.45,2.6c0.07,41.37,0.08,82.74,0.02,124.12c-0.01,4.49-2.43,7.91-6.4,9.75
			c-15.2,7.02-30.5,13.84-45.76,20.76c-6.28,2.84-12.55,5.69-18.77,8.66c-0.72,0.35-1.47,1.48-1.5,2.28
			c-0.16,3.7-0.12,7.42-0.05,11.13c0.06,3.33,2.25,5.25,5.43,4.17c4.3-1.46,8.42-3.46,12.56-5.33c7.94-3.59,15.84-7.25,23.76-10.89
			c9-4.14,18-8.28,27-12.43c5.59-2.57,11.13-5.27,16.79-7.68c5.27-2.25,7.79-6.06,7.79-11.77c-0.03-40.32-0.02-80.65-0.01-120.97
			C249.59,98.25,249.73,97.09,249.83,95.48z M99.03,152.05c-0.34-0.48-0.51-0.61-0.51-0.74c-0.06-6.77-0.14-13.54-0.07-20.31
			c0.01-0.65,0.85-1.58,1.52-1.9c6.31-2.96,12.66-5.83,19.01-8.69c15.34-6.92,30.7-13.81,46.02-20.77c0.7-0.32,1.63-1.16,1.64-1.78
			c0.09-5.32,0.18-10.65-0.12-15.96c-0.17-2.93-3.26-4.33-5.96-3.12c-13.9,6.23-27.82,12.43-41.71,18.7
			c-11.59,5.23-23.09,10.65-34.72,15.77c-6.01,2.65-8.78,6.93-8.72,13.49c0.13,14.84,0.03,29.67,0.04,44.51
			c0,2.58,0.03,5.16,0.23,7.73c0.24,3.12,1.48,4.17,4.55,3.87c1.17-0.11,2.37-0.48,3.45-0.96c9.05-4.06,18.07-8.19,27.11-12.28
			c10.21-4.62,20.44-9.21,30.64-13.85c2.12-0.96,2.51-0.82,2.52,1.54c0.03,5.89-0.02,11.78,0.03,17.66
			c0.01,1.57-0.59,2.48-2.05,3.13c-9.01,4-17.98,8.07-26.97,12.13c-12.55,5.67-25.1,11.33-37.61,17.1
			c-0.79,0.37-1.64,1.58-1.69,2.45c-0.22,3.94-0.19,7.9-0.22,11.85c-0.05,6.3,1.96,8.73,8.83,5.54c12.18-5.65,24.4-11.2,36.62-16.76
			c12.75-5.8,25.48-11.66,38.29-17.32c5.31-2.35,7.58-6.29,7.57-11.9c-0.03-14.68-0.01-29.36-0.01-44.04c0-2.98,0.08-5.97-0.07-8.95
			c-0.16-3.03-1.94-4.52-4.73-4.1c-1.18,0.18-2.37,0.52-3.46,1.01c-8.1,3.64-16.16,7.34-24.25,11.01
			c-8.09,3.67-16.18,7.34-24.28,11.01C106.34,148.77,102.71,150.39,99.03,152.05z"/>
		<g>
			<path class="st1" d="M303.72,176.1l4.25-9.42c4.56,3.32,11.35,5.64,17.84,5.64c7.41,0,10.42-2.47,10.42-5.79
				c0-10.11-31.43-3.17-31.43-23.24c0-9.19,7.41-16.83,22.78-16.83c6.79,0,13.74,1.62,18.76,4.79l-3.86,9.5
				c-5.02-2.86-10.19-4.25-14.98-4.25c-7.41,0-10.27,2.78-10.27,6.18c0,9.96,31.43,3.09,31.43,22.93c0,9.03-7.49,16.75-22.93,16.75
				C317.15,182.36,308.51,179.81,303.72,176.1z"/>
			<path class="st1" d="M357.23,127.38h12.51v54.05h-12.51V127.38z"/>
			<path class="st1" d="M429.42,146.99c0,12.05-9.03,19.54-23.47,19.54h-10.89v14.9h-12.51v-54.05h23.4
				C420.38,127.38,429.42,134.87,429.42,146.99z M416.76,146.99c0-5.95-3.86-9.42-11.51-9.42h-10.19v18.76h10.19
				C412.89,156.34,416.76,152.86,416.76,146.99z"/>
			<path class="st1" d="M480.15,171.39v10.04H438.3v-54.05h40.85v10.04h-28.41v11.74h25.09v9.73h-25.09v12.51H480.15z"/>
			<path class="st1" d="M539.68,127.38v54.05h-10.27l-26.95-32.82v32.82h-12.35v-54.05h10.35l26.87,32.82v-32.82H539.68z"/>
			<path class="st1" d="M588.09,169.85h-25.09l-4.79,11.58h-12.82l24.09-54.05h12.35L606,181.43h-13.13L588.09,169.85z
				 M584.15,160.35l-8.57-20.69l-8.57,20.69H584.15z"/>
		</g>
		<g>
			<path class="st1" d="M304.94,199.04h1.68v19.78h11.26v1.59h-12.94V199.04z"/>
			<path class="st1" d="M326,206.4c4.27,0,7.2,3.02,7.2,7.14c0,4.12-2.93,7.14-7.2,7.14c-4.27,0-7.2-3.02-7.2-7.14
				C318.8,209.42,321.73,206.4,326,206.4z M326,219.18c3.24,0,5.52-2.32,5.52-5.65c0-3.3-2.29-5.65-5.52-5.65
				c-3.17,0-5.52,2.32-5.52,5.65C320.48,216.83,322.8,219.18,326,219.18z"/>
			<path class="st1" d="M339.3,218.3c-0.31-0.37-0.46-0.85-0.46-1.31c0-0.52,0.18-1.01,0.52-1.37c-1.8-0.76-2.87-2.41-2.87-4.36
				c0-2.75,2.14-4.85,5.43-4.85c1.37,0,2.53,0.4,3.45,1.04h0.03l3.91-1.04v1.5l-2.78,0.7c0.52,0.76,0.82,1.68,0.82,2.66
				c0,2.75-2.17,4.85-5.43,4.85c-0.49,0-0.95-0.03-1.37-0.12c-0.21,0.31-0.27,0.64-0.27,1.01c0,0.43,0.12,0.79,0.4,1.1
				c0.43-0.03,0.82-0.06,1.28-0.06c4,0,6.87,1.5,6.87,4.39c0,2.84-2.87,4.33-6.87,4.33c-4,0-6.87-1.43-6.87-4.33
				C335.09,220.25,336.74,218.85,339.3,218.3z M341.96,225.32c3.2,0,5.25-1.1,5.25-2.9s-2.04-2.96-5.25-2.96
				c-3.17,0-5.25,1.13-5.25,2.96C336.71,224.22,338.79,225.32,341.96,225.32z M341.93,214.67c2.29,0,3.81-1.5,3.81-3.42
				c0-1.92-1.62-3.42-3.81-3.42c-2.23,0-3.82,1.5-3.82,3.42C338.11,213.17,339.67,214.67,341.93,214.67z"/>
			<path class="st1" d="M353.65,200.32c0.52,0,1.04,0.4,1.04,1.01c0,0.7-0.52,1.13-1.04,1.13c-0.61,0-1.13-0.43-1.13-1.13
				C352.52,200.72,353.04,200.32,353.65,200.32z M352.79,206.67h1.59v13.73h-1.59V206.67z"/>
			<path class="st1" d="M359.51,210.03c0-2.2,1.8-3.63,4.42-3.63c1.92,0,3.51,0.7,4.3,1.53l-0.67,1.19c-0.85-0.79-2.2-1.31-3.6-1.31
				c-1.71,0-2.78,1.01-2.78,2.2c0,3.63,7.6,1.92,7.6,6.74c0,2.72-2.32,3.94-4.94,3.94c-1.92,0-4.06-1.01-4.7-1.98l0.88-1.04
				c0.76,0.98,2.62,1.62,4,1.62c1.59,0,3.08-0.79,3.08-2.47C367.1,213.35,359.51,215.06,359.51,210.03z"/>
			<path class="st1" d="M372.44,202.86h1.59v3.82h5.52v1.5h-5.52v6.78c0,2.69,0.89,4.15,3.08,4.15c0.92,0,1.71-0.37,2.2-0.73
				l0.52,1.25c-0.64,0.52-1.77,0.98-3.08,0.98c-3.05,0-4.3-1.89-4.3-5.4V202.86z"/>
			<path class="st1" d="M384.99,200.32c0.52,0,1.04,0.4,1.04,1.01c0,0.7-0.52,1.13-1.04,1.13c-0.61,0-1.13-0.43-1.13-1.13
				C383.86,200.72,384.38,200.32,384.99,200.32z M384.13,206.67h1.59v13.73h-1.59V206.67z"/>
			<path class="st1" d="M402.81,218.45c-1.16,1.47-3.17,2.23-5.19,2.23c-4.24,0-7.26-2.81-7.26-7.14c0-4,2.93-7.14,6.84-7.14
				c2.14,0,4.03,0.46,5.34,1.71l-0.76,1.28c-1.22-1.1-2.75-1.5-4.33-1.5c-2.9,0-5.4,2.38-5.4,5.65c0,3.48,2.5,5.65,5.71,5.65
				c1.77,0,3.33-0.79,4.27-1.89L402.81,218.45z"/>
			<path class="st1" d="M405.8,210.03c0-2.2,1.8-3.63,4.42-3.63c1.92,0,3.51,0.7,4.3,1.53l-0.67,1.19c-0.85-0.79-2.2-1.31-3.6-1.31
				c-1.71,0-2.78,1.01-2.78,2.2c0,3.63,7.6,1.92,7.6,6.74c0,2.72-2.32,3.94-4.94,3.94c-1.92,0-4.06-1.01-4.7-1.98l0.88-1.04
				c0.76,0.98,2.62,1.62,4,1.62c1.59,0,3.08-0.79,3.08-2.47C413.4,213.35,405.8,215.06,405.8,210.03z"/>
			<path class="st1" d="M427.19,220.4v-21.36c1.19,0,4-0.06,5.22-0.06c5.92,0,7.6,3.27,7.6,6.44c0,3.33-2.29,6.53-7.6,6.53
				c-1.01,0-2.32-0.03-3.54-0.12v8.58H427.19z M428.87,200.63v9.58c1.19,0.09,2.26,0.15,3.48,0.15c3.88,0,5.89-2.04,5.89-4.97
				c0-2.78-1.65-4.82-5.68-4.82C431.61,200.57,429.87,200.6,428.87,200.63z"/>
			<path class="st1" d="M443.76,202.86h1.59v3.82h5.52v1.5h-5.52v6.78c0,2.69,0.89,4.15,3.08,4.15c0.92,0,1.71-0.37,2.2-0.73
				l0.52,1.25c-0.64,0.52-1.77,0.98-3.08,0.98c-3.05,0-4.3-1.89-4.3-5.4V202.86z"/>
			<path class="st1" d="M460.85,220.4c-2.01,4.91-3.3,6.1-5.16,6.1c-0.89,0-1.62-0.27-2.35-0.7l0.52-1.22
				c0.52,0.24,1.07,0.46,1.62,0.46c1.4,0,2.41-1.13,3.57-3.91l0.31-0.73l-6.78-13.73h1.89l4.7,9.7l0.98,2.14
				c0.21-0.7,0.49-1.43,0.76-2.2l3.69-9.64h1.8L460.85,220.4z"/>
			<path class="st1" d="M477.38,199.04h1.68v19.78h11.26v1.59h-12.94V199.04z"/>
			<path class="st1" d="M492.95,202.86h1.59v3.82h5.52v1.5h-5.52v6.78c0,2.69,0.89,4.15,3.08,4.15c0.92,0,1.71-0.37,2.2-0.73
				l0.52,1.25c-0.64,0.52-1.77,0.98-3.08,0.98c-3.05,0-4.3-1.89-4.3-5.4V202.86z"/>
			<path class="st1" d="M514.34,218.45c-1.07,1.22-2.75,2.2-4.73,2.2c-4.06,0-6.71-2.78-6.71-7.05c0-4.24,3.2-7.2,7.48-7.2
				c1.59,0,2.84,0.37,3.97,1.19v-8.55h1.59v21.36h-1.59V218.45z M514.34,216.99v-7.84c-1.4-0.95-2.65-1.25-3.94-1.25
				c-3.2,0-5.83,2.26-5.83,5.65c0,3.51,2.2,5.62,5.34,5.62C511.75,219.15,513.46,218.02,514.34,216.99z"/>
		</g>
	</g>
</g>
</svg>
