<?xml version="1.0" encoding="utf-8"?>
<!-- Generator: Adobe Illustrator 26.0.3, SVG Export Plug-In . SVG Version: 6.00 Build 0)  -->
<svg version="1.1" xmlns="http://www.w3.org/2000/svg" xmlns:xlink="http://www.w3.org/1999/xlink" x="0px" y="0px"
	 viewBox="0 0 426 493" style="enable-background:new 0 0 426 493;" xml:space="preserve">
<style type="text/css">
	.st0{fill:#0E142D;}
	.st1{fill:#FFFFFF;}
</style>
<g id="Layer_2">
</g>
<g id="Layer_1">
	<g>
		<path class="st0" d="M297.7,103.67c4.84,2.32,9.37,4.19,13.59,6.61c3.65,2.1,5.41,5.58,5.41,9.93c-0.02,39.6-0.02,79.2-0.01,118.8
			c0,6.36-4,9.52-9.21,11.93c-10.91,5.03-21.74,10.23-32.62,15.33c-11.59,5.44-23.2,10.85-34.8,16.28
			c-7.09,3.32-14.19,6.62-21.23,10.04c-5.38,2.62-10.52,1.94-15.73-0.54c-12.92-6.15-25.9-12.19-38.84-18.3
			c-10.57-5-21.12-10.06-31.69-15.07c-6.21-2.94-12.44-5.87-18.67-8.76c-4.98-2.31-7.41-6.17-7.41-11.65
			c0.02-34.51,0.01-69.02,0.01-103.53c0-4.06,0.22-8.13-0.05-12.16c-0.48-7.32,3.08-11.6,9.51-14.48
			c10.96-4.91,21.75-10.2,32.62-15.31c11.59-5.44,23.2-10.83,34.8-16.27c6.16-2.88,12.25-5.92,18.48-8.65
			c8.69-3.8,16.01-1.21,24.39,2.17c2.71,1.09,5.27,2.55,7.97,3.68c1.62,0.68,2.27,1.63,2.27,3.41
			c-0.04,32.44-0.13,117.2-0.01,120.61c0.19,5.37-2.22,9.16-6.96,11.35c-9.9,4.57-19.88,8.96-29.8,13.48
			c-10.71,4.88-21.39,9.84-32.11,14.69c-1.84,0.83-2.55,1.88-2.43,3.95c0.2,3.17,0.16,6.36-0.02,9.54
			c-0.23,4.02,3.07,5.73,6.35,4.27c4.47-1.99,8.91-4.05,13.35-6.09c7.73-3.55,15.45-7.1,23.17-10.66
			c9.03-4.16,18.05-8.32,27.08-12.47c4.51-2.07,9-4.2,13.57-6.12c5.67-2.38,8.47-6.27,8.48-12.4c0.04-24.04,0.01-48.09,0.01-72.13
			c0-15.61-0.47-31.31,0.07-46.91c0.03-0.83,0.18-1.71,0.76-2.3c1.97-2,15,6.15,17.46,7.39c0.74,0.38,1.43,1.69,1.43,2.56
			c0.07,40.79,0.08,81.59,0.02,122.38c-0.01,4.43-2.39,7.8-6.31,9.61c-14.99,6.92-30.07,13.65-45.12,20.47
			c-6.19,2.81-12.38,5.61-18.51,8.54c-0.71,0.34-1.45,1.46-1.48,2.25c-0.15,3.65-0.11,7.31-0.05,10.97
			c0.06,3.28,2.22,5.17,5.35,4.11c4.24-1.44,8.3-3.41,12.39-5.26c7.83-3.54,15.62-7.15,23.43-10.74
			c8.88-4.08,17.75-8.17,26.62-12.25c5.51-2.54,10.97-5.19,16.55-7.58c5.2-2.22,7.68-5.98,7.68-11.6
			c-0.03-39.76-0.02-79.52-0.01-119.28C297.46,106.39,297.6,105.25,297.7,103.67z M149.01,159.45c-0.33-0.47-0.5-0.6-0.5-0.73
			c-0.06-6.68-0.14-13.35-0.07-20.03c0.01-0.64,0.83-1.56,1.5-1.87c6.22-2.92,12.48-5.74,18.75-8.57
			c15.13-6.82,30.27-13.62,45.38-20.48c0.69-0.31,1.61-1.15,1.62-1.75c0.09-5.24,0.18-10.5-0.12-15.73
			c-0.17-2.89-3.22-4.27-5.88-3.08c-13.71,6.14-27.43,12.26-41.12,18.44c-11.42,5.16-22.77,10.5-34.24,15.55
			c-5.93,2.61-8.66,6.83-8.6,13.31c0.13,14.63,0.03,29.26,0.04,43.89c0,2.54,0.03,5.09,0.22,7.63c0.23,3.07,1.46,4.11,4.49,3.82
			c1.16-0.11,2.34-0.47,3.4-0.95c8.92-4,17.82-8.07,26.73-12.1c10.07-4.56,20.15-9.08,30.22-13.66c2.09-0.95,2.47-0.81,2.49,1.52
			c0.03,5.81-0.02,11.61,0.03,17.42c0.01,1.55-0.58,2.44-2.02,3.08c-8.88,3.94-17.73,7.95-26.59,11.96
			c-12.37,5.59-24.75,11.17-37.08,16.86c-0.78,0.36-1.61,1.56-1.66,2.41c-0.22,3.89-0.18,7.79-0.21,11.68
			c-0.05,6.21,1.93,8.6,8.71,5.46c12.01-5.57,24.06-11.04,36.11-16.53c12.57-5.72,25.12-11.49,37.75-17.08
			c5.24-2.31,7.48-6.2,7.46-11.74c-0.03-14.47-0.01-28.95-0.01-43.42c0-2.94,0.08-5.89-0.07-8.83c-0.16-2.99-1.91-4.45-4.67-4.04
			c-1.16,0.17-2.34,0.51-3.41,1c-7.98,3.59-15.94,7.24-23.91,10.85c-7.98,3.62-15.96,7.24-23.94,10.85
			C156.21,156.21,152.64,157.81,149.01,159.45z"/>
		<g>
			<path class="st1" d="M63.97,377.06l4.19-9.29c4.49,3.27,11.19,5.56,17.59,5.56c7.31,0,10.28-2.44,10.28-5.71
				c0-9.97-30.99-3.12-30.99-22.92c0-9.06,7.31-16.6,22.46-16.6c6.7,0,13.55,1.6,18.5,4.72l-3.81,9.36
				c-4.95-2.82-10.05-4.19-14.77-4.19c-7.31,0-10.13,2.74-10.13,6.09c0,9.82,30.99,3.05,30.99,22.61c0,8.91-7.39,16.52-22.61,16.52
				C77.22,383.22,68.69,380.71,63.97,377.06z"/>
			<path class="st1" d="M116.73,329.02h12.33v53.29h-12.33V329.02z"/>
			<path class="st1" d="M187.91,348.36c0,11.88-8.91,19.26-23.15,19.26h-10.73v14.69H141.7v-53.29h23.07
				C179.01,329.02,187.91,336.4,187.91,348.36z M175.43,348.36c0-5.86-3.81-9.29-11.34-9.29h-10.05v18.5h10.05
				C171.62,357.57,175.43,354.14,175.43,348.36z"/>
			<path class="st1" d="M237.93,372.41v9.9h-41.26v-53.29h40.27v9.9h-28.02v11.57h24.74v9.59h-24.74v12.33H237.93z"/>
			<path class="st1" d="M296.63,329.02v53.29H286.5l-26.57-32.36v32.36h-12.18v-53.29h10.2l26.5,32.36v-32.36H296.63z"/>
			<path class="st1" d="M344.36,370.89h-24.74l-4.72,11.42h-12.64l23.75-53.29h12.18l23.83,53.29h-12.94L344.36,370.89z
				 M340.48,361.53l-8.45-20.4l-8.45,20.4H340.48z"/>
		</g>
		<g>
			<path class="st1" d="M108.02,399.68h1.65v19.5h11.1v1.57h-12.76V399.68z"/>
			<path class="st1" d="M128.78,406.93c4.21,0,7.1,2.98,7.1,7.04c0,4.06-2.89,7.04-7.1,7.04c-4.21,0-7.1-2.98-7.1-7.04
				C121.68,409.91,124.57,406.93,128.78,406.93z M128.78,419.54c3.19,0,5.45-2.29,5.45-5.57c0-3.25-2.26-5.57-5.45-5.57
				c-3.13,0-5.45,2.29-5.45,5.57C123.33,417.22,125.62,419.54,128.78,419.54z"/>
			<path class="st1" d="M141.9,418.66c-0.3-0.36-0.45-0.84-0.45-1.29c0-0.51,0.18-0.99,0.51-1.35c-1.78-0.75-2.83-2.38-2.83-4.3
				c0-2.71,2.11-4.78,5.36-4.78c1.35,0,2.5,0.39,3.4,1.02h0.03l3.85-1.02v1.47l-2.74,0.69c0.51,0.75,0.81,1.66,0.81,2.62
				c0,2.71-2.14,4.78-5.36,4.78c-0.48,0-0.93-0.03-1.36-0.12c-0.21,0.3-0.27,0.63-0.27,0.99c0,0.42,0.12,0.78,0.39,1.08
				c0.42-0.03,0.81-0.06,1.26-0.06c3.94,0,6.77,1.47,6.77,4.33c0,2.8-2.83,4.27-6.77,4.27s-6.77-1.41-6.77-4.27
				C137.75,420.59,139.37,419.21,141.9,418.66z M144.52,425.59c3.16,0,5.18-1.08,5.18-2.86c0-1.78-2.02-2.92-5.18-2.92
				c-3.13,0-5.18,1.11-5.18,2.92C139.34,424.5,141.39,425.59,144.52,425.59z M144.49,415.08c2.26,0,3.76-1.47,3.76-3.37
				c0-1.9-1.59-3.37-3.76-3.37c-2.2,0-3.76,1.47-3.76,3.37C140.72,413.61,142.26,415.08,144.49,415.08z"/>
			<path class="st1" d="M156.04,400.94c0.51,0,1.02,0.39,1.02,0.99c0,0.69-0.51,1.11-1.02,1.11c-0.6,0-1.11-0.42-1.11-1.11
				C154.93,401.33,155.44,400.94,156.04,400.94z M155.2,407.2h1.57v13.54h-1.57V407.2z"/>
			<path class="st1" d="M161.82,410.51c0-2.17,1.78-3.58,4.36-3.58c1.9,0,3.46,0.69,4.24,1.5l-0.66,1.17
				c-0.84-0.78-2.17-1.29-3.55-1.29c-1.68,0-2.74,0.99-2.74,2.17c0,3.58,7.49,1.9,7.49,6.65c0,2.68-2.29,3.88-4.87,3.88
				c-1.9,0-4-0.99-4.64-1.96l0.87-1.02c0.75,0.96,2.59,1.59,3.94,1.59c1.57,0,3.04-0.78,3.04-2.44
				C169.31,413.79,161.82,415.47,161.82,410.51z"/>
			<path class="st1" d="M174.57,403.44h1.56v3.76h5.45v1.47h-5.45v6.68c0,2.65,0.87,4.09,3.04,4.09c0.9,0,1.69-0.36,2.17-0.72
				l0.51,1.23c-0.63,0.51-1.74,0.96-3.04,0.96c-3.01,0-4.24-1.86-4.24-5.33V403.44z"/>
			<path class="st1" d="M186.94,400.94c0.51,0,1.02,0.39,1.02,0.99c0,0.69-0.51,1.11-1.02,1.11c-0.6,0-1.11-0.42-1.11-1.11
				C185.83,401.33,186.34,400.94,186.94,400.94z M186.1,407.2h1.56v13.54h-1.56V407.2z"/>
			<path class="st1" d="M204.51,418.82c-1.14,1.44-3.13,2.2-5.12,2.2c-4.18,0-7.16-2.77-7.16-7.04c0-3.94,2.89-7.04,6.74-7.04
				c2.11,0,3.97,0.45,5.27,1.68l-0.75,1.26c-1.2-1.08-2.71-1.47-4.27-1.47c-2.86,0-5.33,2.35-5.33,5.57c0,3.43,2.47,5.57,5.63,5.57
				c1.75,0,3.28-0.78,4.21-1.87L204.51,418.82z"/>
			<path class="st1" d="M207.46,410.51c0-2.17,1.78-3.58,4.36-3.58c1.9,0,3.46,0.69,4.24,1.5l-0.66,1.17
				c-0.84-0.78-2.17-1.29-3.55-1.29c-1.68,0-2.74,0.99-2.74,2.17c0,3.58,7.49,1.9,7.49,6.65c0,2.68-2.29,3.88-4.87,3.88
				c-1.9,0-4-0.99-4.64-1.96l0.87-1.02c0.75,0.96,2.59,1.59,3.94,1.59c1.57,0,3.04-0.78,3.04-2.44
				C214.95,413.79,207.46,415.47,207.46,410.51z"/>
			<path class="st1" d="M228.55,420.74v-21.06c1.17,0,3.94-0.06,5.15-0.06c5.84,0,7.49,3.22,7.49,6.35c0,3.28-2.26,6.44-7.49,6.44
				c-0.99,0-2.29-0.03-3.49-0.12v8.46H228.55z M230.21,401.24v9.45c1.17,0.09,2.23,0.15,3.43,0.15c3.82,0,5.81-2.02,5.81-4.9
				c0-2.74-1.63-4.75-5.6-4.75C232.92,401.18,231.2,401.21,230.21,401.24z"/>
			<path class="st1" d="M244.89,403.44h1.56v3.76h5.45v1.47h-5.45v6.68c0,2.65,0.87,4.09,3.04,4.09c0.9,0,1.68-0.36,2.17-0.72
				l0.51,1.23c-0.63,0.51-1.74,0.96-3.04,0.96c-3.01,0-4.24-1.86-4.24-5.33V403.44z"/>
			<path class="st1" d="M261.74,420.74c-1.99,4.85-3.25,6.02-5.09,6.02c-0.87,0-1.59-0.27-2.32-0.69l0.51-1.2
				c0.51,0.24,1.05,0.45,1.59,0.45c1.39,0,2.38-1.11,3.52-3.85l0.3-0.72l-6.68-13.54h1.87l4.63,9.57l0.96,2.11
				c0.21-0.69,0.48-1.41,0.75-2.17l3.64-9.51h1.78L261.74,420.74z"/>
			<path class="st1" d="M278.05,399.68h1.65v19.5h11.1v1.57h-12.76V399.68z"/>
			<path class="st1" d="M293.39,403.44h1.56v3.76h5.45v1.47h-5.45v6.68c0,2.65,0.87,4.09,3.04,4.09c0.9,0,1.68-0.36,2.17-0.72
				l0.51,1.23c-0.63,0.51-1.74,0.96-3.04,0.96c-3.01,0-4.24-1.86-4.24-5.33V403.44z"/>
			<path class="st1" d="M314.49,418.82c-1.05,1.2-2.71,2.17-4.67,2.17c-4,0-6.62-2.74-6.62-6.95c0-4.18,3.16-7.1,7.37-7.1
				c1.56,0,2.8,0.36,3.91,1.17v-8.43h1.56v21.06h-1.56V418.82z M314.49,417.37v-7.73c-1.39-0.93-2.62-1.23-3.88-1.23
				c-3.16,0-5.75,2.23-5.75,5.57c0,3.46,2.17,5.54,5.27,5.54C311.93,419.51,313.61,418.39,314.49,417.37z"/>
		</g>
	</g>
</g>
</svg>
