<?xml version="1.0" encoding="utf-8"?>
<!-- Generator: Adobe Illustrator 26.0.3, SVG Export Plug-In . SVG Version: 6.00 Build 0)  -->
<svg version="1.1" xmlns="http://www.w3.org/2000/svg" xmlns:xlink="http://www.w3.org/1999/xlink" x="0px" y="0px"
	 viewBox="0 0 426 339" style="enable-background:new 0 0 426 339;" xml:space="preserve">
<style type="text/css">
	.st0{fill:#0E142D;}
	.st1{fill:#FFFFFF;}
</style>
<g id="Layer_2">
</g>
<g id="Layer_1">
	<g>
		<path class="st0" d="M299.14,93.03c4.84,2.32,9.37,4.19,13.59,6.61c3.65,2.1,5.41,5.58,5.41,9.93c-0.02,39.6-0.02,79.2-0.01,118.8
			c0,6.36-4,9.52-9.21,11.93c-10.91,5.03-21.74,10.23-32.62,15.33c-11.59,5.44-23.2,10.85-34.8,16.28
			c-7.09,3.32-14.19,6.62-21.23,10.04c-5.38,2.62-10.52,1.94-15.73-0.54c-12.92-6.15-25.9-12.19-38.84-18.3
			c-10.57-5-21.12-10.06-31.69-15.07c-6.21-2.94-12.44-5.87-18.67-8.76c-4.98-2.31-7.41-6.17-7.41-11.65
			c0.02-34.51,0.01-69.02,0.01-103.53c0-4.06,0.22-8.13-0.05-12.16c-0.48-7.32,3.08-11.6,9.51-14.48
			c10.96-4.91,21.75-10.2,32.62-15.31c11.59-5.44,23.2-10.83,34.8-16.27c6.16-2.88,12.25-5.92,18.48-8.65
			c8.69-3.8,16.01-1.21,24.39,2.17c2.71,1.09,5.27,2.55,7.97,3.68c1.62,0.68,2.27,1.63,2.27,3.41
			c-0.04,32.44-0.13,117.2-0.01,120.61c0.19,5.37-2.22,9.16-6.96,11.35c-9.9,4.57-19.88,8.96-29.8,13.48
			c-10.71,4.88-21.39,9.84-32.11,14.69c-1.84,0.83-2.55,1.88-2.43,3.95c0.2,3.17,0.16,6.36-0.02,9.54
			c-0.23,4.02,3.07,5.73,6.35,4.27c4.47-1.99,8.91-4.05,13.35-6.09c7.73-3.55,15.45-7.1,23.17-10.66
			c9.03-4.16,18.05-8.32,27.08-12.47c4.51-2.07,9-4.2,13.57-6.12c5.67-2.38,8.47-6.27,8.48-12.4c0.04-24.04,0.01-48.09,0.01-72.13
			c0-15.61-0.47-31.31,0.07-46.91c0.03-0.83,0.18-1.71,0.76-2.3c1.97-2,15,6.15,17.46,7.39c0.74,0.38,1.43,1.69,1.43,2.56
			c0.07,40.79,0.08,81.59,0.02,122.38c-0.01,4.43-2.39,7.8-6.31,9.61c-14.99,6.92-30.07,13.65-45.12,20.47
			c-6.19,2.81-12.38,5.61-18.51,8.54c-0.71,0.34-1.45,1.46-1.48,2.25c-0.15,3.65-0.11,7.31-0.05,10.97
			c0.06,3.28,2.22,5.17,5.35,4.11c4.24-1.44,8.3-3.41,12.39-5.26c7.83-3.54,15.62-7.15,23.43-10.74
			c8.88-4.08,17.75-8.17,26.62-12.25c5.51-2.54,10.97-5.19,16.55-7.58c5.2-2.22,7.68-5.98,7.68-11.6
			c-0.03-39.76-0.02-79.52-0.01-119.28C298.91,95.76,299.04,94.62,299.14,93.03z M150.45,148.82c-0.33-0.47-0.5-0.6-0.5-0.73
			c-0.06-6.68-0.14-13.35-0.07-20.03c0.01-0.64,0.83-1.56,1.5-1.87c6.22-2.92,12.48-5.74,18.75-8.57
			c15.13-6.82,30.27-13.62,45.38-20.48c0.69-0.31,1.61-1.15,1.62-1.75c0.09-5.24,0.18-10.5-0.12-15.73
			c-0.17-2.89-3.22-4.27-5.88-3.08c-13.71,6.14-27.43,12.26-41.12,18.44c-11.42,5.16-22.77,10.5-34.24,15.55
			c-5.93,2.61-8.66,6.83-8.6,13.31c0.13,14.63,0.03,29.26,0.04,43.89c0,2.54,0.03,5.09,0.22,7.63c0.23,3.07,1.46,4.11,4.49,3.82
			c1.16-0.11,2.34-0.47,3.4-0.95c8.92-4,17.82-8.07,26.73-12.1c10.07-4.56,20.15-9.08,30.22-13.66c2.09-0.95,2.47-0.81,2.49,1.52
			c0.03,5.81-0.02,11.61,0.03,17.42c0.01,1.55-0.58,2.44-2.02,3.08c-8.88,3.94-17.73,7.95-26.59,11.96
			c-12.37,5.59-24.75,11.17-37.08,16.86c-0.78,0.36-1.61,1.56-1.66,2.41c-0.22,3.89-0.18,7.79-0.21,11.68
			c-0.05,6.21,1.93,8.6,8.71,5.46c12.01-5.57,24.06-11.04,36.11-16.53c12.57-5.72,25.12-11.49,37.75-17.08
			c5.24-2.31,7.48-6.2,7.46-11.74c-0.03-14.47-0.01-28.95-0.01-43.42c0-2.94,0.08-5.89-0.07-8.83c-0.16-2.99-1.91-4.45-4.67-4.05
			c-1.16,0.17-2.34,0.51-3.41,1c-7.98,3.59-15.94,7.24-23.91,10.85c-7.98,3.62-15.96,7.24-23.94,10.85
			C157.66,145.58,154.09,147.18,150.45,148.82z"/>
	</g>
</g>
</svg>
